# xmcd
#
# Track frame offsets:
#	182
#	17905
#	33640
#	51897
#	63520
#	76685
#	89437
#	106787
#	120780
#	135782
#	152252
#	168760
#
# Disc length: 2464 seconds
#
# Revision: 2
# Processed by: cddbd v1.4PL0 Copyright (c) Steve Scherf et al.
# Submitted via: audiograbber 1.81.02
#
DISCID=7d099e0c
DTITLE=Various Artist - New Country (May 1995)
DYEAR=1995
DGENRE=
TTITLE0=Kim Richey - Those Words We Said
TTITLE1=Michael Hall - A New Favorite Place
TTITLE2=Blackhawk - That's Just About Right
TTITLE3=Terry Radigan - Half A Million Teardrops
TTITLE4=Tish Hinojosa - Pajarillo Barranqueno
TTITLE5=Tim O'Brien - Rock In My Shoe
TTITLE6=4 Runner - Cain's Blood
TTITLE7=Shane Sutton - I've Got Your Number
TTITLE8=Susie Luchinger - Take It To The Rock
TTITLE9=The Highwaymen - It Is What It Is
TTITLE10=Michael Anderson - Deal With The Devil
TTITLE11=Tom Christopher - Love Knows No Bounds
EXTD=
EXTT0=
EXTT1=
EXTT2=
EXTT3=
EXTT4=
EXTT5=
EXTT6=
EXTT7=
EXTT8=
EXTT9=
EXTT10=
EXTT11=
PLAYORDER=
